<?xml version="1.0" standalone="no"?>
<!DOCTYPE svg PUBLIC "-//W3C//DTD SVG 20010904//EN"
 "http://www.w3.org/TR/2001/REC-SVG-20010904/DTD/svg10.dtd">
<svg version="1.0" xmlns="http://www.w3.org/2000/svg"
 width="1200.000000pt" height="1200.000000pt" viewBox="0 0 1200.000000 1200.000000"
 preserveAspectRatio="xMidYMid meet">

<g transform="translate(0.000000,1200.000000) scale(0.100000,-0.100000)"
fill="#000000" stroke="none">
<path d="M3580 7362 l0 -2012 248 0 247 0 123 123 122 122 0 1526 0 1526 -272
268 c-150 147 -317 311 -370 363 l-98 97 0 -2013z"/>
<path d="M4600 7187 c0 -636 3 -1157 6 -1157 3 0 170 163 370 362 l364 362 0
425 0 426 -370 370 -370 370 0 -1158z"/>
<path d="M4952 4457 c-62 -65 21 -164 95 -112 29 20 37 59 19 94 -25 47 -79
56 -114 18z"/>
<path d="M6212 4457 c-62 -65 21 -164 95 -112 29 20 37 59 19 94 -25 47 -79
56 -114 18z"/>
<path d="M4120 4115 l0 -347 183 4 182 3 68 33 c120 59 182 166 180 312 -1
142 -69 251 -191 308 -54 25 -66 27 -239 30 l-183 4 0 -347z m355 226 c87 -40
125 -110 125 -228 0 -88 -19 -141 -66 -185 -47 -44 -94 -58 -194 -58 l-90 0 0
245 0 245 93 0 c68 0 102 -5 132 -19z"/>
<path d="M6628 4408 c-9 -7 -21 -43 -28 -80 l-12 -67 -40 -6 c-37 -7 -39 -9
-36 -38 3 -28 7 -32 36 -35 l32 -3 0 -149 c0 -172 12 -220 63 -246 37 -20 114
-20 161 0 41 17 42 18 19 57 -15 26 -21 28 -55 23 -64 -11 -68 -2 -68 167 l0
149 65 0 65 0 0 40 0 40 -65 0 -65 0 0 80 0 80 -28 0 c-16 0 -35 -6 -44 -12z"/>
<path d="M5465 4256 c-16 -8 -39 -21 -50 -29 -17 -13 -20 -13 -30 7 -8 16 -21
22 -58 24 l-47 3 0 -245 0 -246 60 0 60 0 0 179 0 179 31 26 c36 31 78 33 110
7 23 -19 24 -24 27 -205 l3 -186 60 0 59 0 0 170 c0 102 4 179 11 193 29 63
126 59 149 -6 5 -16 10 -104 10 -193 l0 -164 60 0 60 0 -4 188 c-2 170 -5 191
-25 230 -38 75 -139 103 -227 63 -23 -10 -48 -29 -57 -41 l-15 -22 -34 37
c-27 30 -42 38 -78 41 -27 3 -57 -2 -75 -10z"/>
<path d="M7205 4255 c-16 -9 -42 -30 -57 -48 l-27 -32 -1 27 c0 50 -9 58 -61
58 l-49 0 0 -245 0 -245 60 0 60 0 0 150 c0 115 4 158 15 180 21 40 68 64 117
57 43 -6 48 -1 58 55 6 32 4 40 -11 48 -26 14 -70 12 -104 -5z"/>
<path d="M4940 4015 l0 -245 60 0 60 0 0 245 0 245 -60 0 -60 0 0 -245z"/>
<path d="M6200 4015 l0 -245 60 0 60 0 0 245 0 245 -60 0 -60 0 0 -245z"/>
<path d="M7450 4252 c0 -4 43 -107 96 -227 l96 -219 -45 -98 -46 -98 53 0 c31
0 58 5 64 13 12 14 272 617 272 630 0 4 -26 7 -57 5 l-58 -3 -62 -160 c-44
-111 -64 -154 -68 -140 -4 11 -32 83 -64 160 l-57 140 -62 3 c-34 2 -62 -1
-62 -6z"/>
<path d="M7650 2981 c0 -191 2 -221 15 -221 13 0 15 28 13 217 -2 162 -6 217
-15 221 -10 3 -13 -45 -13 -217z"/>
<path d="M5810 3103 c0 -84 0 -86 -19 -69 -49 45 -143 25 -181 -37 -27 -44
-27 -140 0 -185 35 -57 103 -68 164 -27 l36 24 0 -24 c0 -16 6 -25 15 -25 13
0 15 31 15 215 0 184 -2 215 -15 215 -12 0 -15 -16 -15 -87z m-19 -89 c15 -14
19 -31 19 -91 0 -85 -9 -107 -50 -128 -44 -23 -78 -19 -111 14 -26 26 -29 36
-29 93 1 69 15 104 51 125 30 17 94 10 120 -13z"/>
<path d="M6380 3103 c0 -84 0 -86 -19 -69 -49 45 -143 25 -181 -37 -27 -44
-27 -140 0 -185 35 -57 103 -68 164 -27 l36 24 0 -24 c0 -16 6 -25 15 -25 13
0 15 31 15 215 0 184 -2 215 -15 215 -12 0 -15 -16 -15 -87z m-19 -89 c15 -14
19 -31 19 -91 0 -85 -9 -107 -50 -128 -44 -23 -78 -19 -111 14 -26 26 -29 36
-29 93 1 69 15 104 51 125 30 17 94 10 120 -13z"/>
<path d="M2900 2970 c0 -180 2 -210 15 -210 12 0 15 18 15 100 l0 100 100 0
c60 0 100 4 100 10 0 6 -40 10 -100 10 l-100 0 0 90 0 90 115 0 c70 0 115 4
115 10 0 6 -50 10 -130 10 l-130 0 0 -210z"/>
<path d="M4350 3105 c0 -52 -1 -55 -25 -55 -14 0 -25 -4 -25 -10 0 -5 11 -10
25 -10 l25 0 0 -119 c0 -132 8 -151 59 -151 30 0 70 24 59 36 -4 4 -14 1 -23
-6 -8 -7 -25 -10 -40 -6 -28 7 -27 1 -29 149 l-2 97 48 0 c27 0 48 5 48 10 0
6 -22 10 -48 10 l-48 0 -1 38 c-1 62 -3 72 -13 72 -5 0 -10 -25 -10 -55z"/>
<path d="M3270 2910 c0 -127 2 -150 15 -150 12 0 15 19 15 111 0 110 0 111 30
141 23 23 38 29 62 27 18 -2 35 1 38 6 3 6 -11 11 -31 13 -27 2 -44 -3 -66
-22 -32 -27 -43 -25 -43 6 0 10 -4 18 -10 18 -6 0 -10 -57 -10 -150z"/>
<path d="M3613 3040 c-43 -26 -63 -68 -63 -132 0 -117 95 -180 197 -131 41 19
73 78 73 133 0 19 -9 53 -19 76 -31 69 -121 95 -188 54z m137 -28 c74 -74 33
-232 -60 -232 -42 0 -84 23 -98 55 -16 34 -15 124 2 154 31 56 111 68 156 23z"/>
<path d="M3950 2910 c0 -127 2 -150 15 -150 12 0 15 19 15 113 0 107 1 115 24
136 35 33 98 39 125 12 19 -19 21 -32 21 -141 0 -100 3 -120 15 -120 13 0 15
20 15 121 0 120 0 121 -29 150 -36 35 -79 38 -136 9 -22 -11 -41 -20 -42 -20
-2 0 -3 9 -3 20 0 11 -4 20 -10 20 -6 0 -10 -57 -10 -150z"/>
<path d="M4903 3040 c-43 -26 -63 -68 -63 -132 0 -90 53 -148 135 -148 41 0
105 24 105 39 0 14 -1 14 -43 -4 -46 -19 -80 -19 -116 0 -31 16 -40 30 -51 88
l-7 37 113 0 c109 0 114 1 114 21 0 92 -107 148 -187 99z m110 -11 c25 -11 47
-47 47 -74 0 -12 -19 -15 -95 -15 -84 0 -95 2 -95 18 0 59 81 99 143 71z"/>
<path d="M5230 2910 c0 -127 2 -150 15 -150 12 0 15 19 15 113 0 107 1 115 24
136 35 33 98 39 125 12 19 -19 21 -32 21 -141 0 -100 3 -120 15 -120 13 0 15
20 15 121 0 120 0 121 -29 150 -36 35 -79 38 -136 9 -22 -11 -41 -20 -42 -20
-2 0 -3 9 -3 20 0 11 -4 20 -10 20 -6 0 -10 -57 -10 -150z"/>
<path d="M6613 3040 c-43 -26 -63 -68 -63 -132 0 -90 53 -148 135 -148 41 0
105 24 105 39 0 14 -1 14 -43 -4 -46 -19 -80 -19 -116 0 -31 16 -40 30 -51 88
l-7 37 113 0 c109 0 114 1 114 21 0 92 -107 148 -187 99z m110 -11 c25 -11 47
-47 47 -74 0 -12 -19 -15 -95 -15 -84 0 -95 2 -95 18 0 59 81 99 143 71z"/>
<path d="M6893 3048 c64 -164 123 -288 134 -286 8 2 39 62 69 133 68 162 68
165 52 165 -7 0 -37 -57 -67 -131 l-55 -130 -54 130 c-35 84 -60 131 -69 131
-9 0 -13 -6 -10 -12z"/>
<path d="M7313 3040 c-43 -26 -63 -68 -63 -132 0 -90 53 -148 135 -148 41 0
105 24 105 39 0 14 -1 14 -43 -4 -46 -19 -80 -19 -116 0 -31 16 -40 30 -51 88
l-7 37 113 0 c109 0 114 1 114 21 0 92 -107 148 -187 99z m110 -11 c25 -11 47
-47 47 -74 0 -12 -19 -15 -95 -15 -84 0 -95 2 -95 18 0 59 81 99 143 71z"/>
<path d="M7883 3040 c-43 -26 -63 -68 -63 -132 0 -117 95 -180 197 -131 41 19
73 78 73 133 0 19 -9 53 -19 76 -31 69 -121 95 -188 54z m137 -28 c74 -74 33
-232 -60 -232 -42 0 -84 23 -98 55 -16 34 -15 124 2 154 31 56 111 68 156 23z"/>
<path d="M8220 2855 c0 -176 2 -205 15 -205 12 0 15 14 15 70 l0 71 30 -16
c63 -33 145 -5 171 58 18 40 18 123 1 163 -26 61 -107 82 -170 44 -40 -25 -42
-25 -42 0 0 11 -4 20 -10 20 -6 0 -10 -75 -10 -205z m192 155 c20 -25 33 -97
23 -139 -14 -64 -76 -105 -134 -86 -43 13 -51 32 -51 120 0 81 1 84 32 110 27
23 39 26 72 22 24 -4 48 -14 58 -27z"/>
<path d="M8643 3040 c-43 -26 -63 -68 -63 -132 0 -90 53 -148 135 -148 41 0
105 24 105 39 0 14 -1 14 -43 -4 -46 -19 -80 -19 -116 0 -31 16 -40 30 -51 88
l-7 37 113 0 c109 0 114 1 114 21 0 92 -107 148 -187 99z m110 -11 c25 -11 47
-47 47 -74 0 -12 -19 -15 -95 -15 -84 0 -95 2 -95 18 0 59 81 99 143 71z"/>
<path d="M8970 2910 c0 -127 2 -150 15 -150 12 0 15 19 15 111 0 110 0 111 30
141 23 23 38 29 62 27 18 -2 35 1 38 6 3 6 -11 11 -31 13 -27 2 -44 -3 -66
-22 -32 -27 -43 -25 -43 6 0 10 -4 18 -10 18 -6 0 -10 -57 -10 -150z"/>
<path d="M4580 2940 c0 -6 30 -10 70 -10 40 0 70 4 70 10 0 6 -30 10 -70 10
-40 0 -70 -4 -70 -10z"/>
</g>
</svg>
